<svg xmlns="http://www.w3.org/2000/svg" xmlns:xlink="http://www.w3.org/1999/xlink" width="500" zoomAndPan="magnify" viewBox="0 0 375 374.999991" height="500" preserveAspectRatio="xMidYMid meet" version="1.0"><rect x="-37.5" width="450" fill="#ffffff" y="-37.499999" height="449.999989" fill-opacity="1"/><path fill="#000000" d="M 112.800781 73.46875 L 83.441406 73.46875 C 65.539062 73.46875 51.007812 87.992188 51.007812 105.882812 C 51.007812 123.773438 65.539062 138.296875 83.441406 138.296875 L 98.109375 138.296875 Z M 197.699219 73.46875 L 183.007812 138.296875 L 380.109375 138.296875 C 398.011719 138.296875 412.542969 123.773438 412.542969 105.882812 C 412.542969 87.992188 398.011719 73.46875 380.109375 73.46875 Z M 197.699219 73.46875 " fill-opacity="1" fill-rule="evenodd"/><path fill="#000000" d="M 310.121094 147.257812 L 243.609375 147.257812 L 214.316406 276.523438 C 210.359375 293.972656 221.328125 311.34375 238.785156 315.296875 C 256.242188 319.25 273.628906 308.292969 277.582031 290.84375 Z M 262.367188 64.507812 L 328.875 64.507812 L 333.808594 42.730469 C 337.765625 25.285156 326.800781 7.910156 309.34375 3.957031 C 291.886719 0.0078125 274.5 10.960938 270.546875 28.410156 Z M 262.367188 64.507812 " fill-opacity="1" fill-rule="evenodd"/><path fill="#000000" d="M 226.640625 181.582031 L 32.507812 181.582031 C 14.605469 181.582031 0.0742188 196.105469 0.0742188 214 C 0.0742188 231.886719 14.605469 246.410156 32.507812 246.410156 L 211.945312 246.410156 Z M 311.539062 181.582031 L 296.84375 246.410156 L 329.175781 246.410156 C 347.074219 246.410156 361.609375 231.886719 361.609375 214 C 361.609375 196.105469 347.074219 181.582031 329.175781 181.582031 Z M 311.539062 181.582031 " fill-opacity="1" fill-rule="evenodd"/><path fill="#000000" d="M 147.28125 255.375 L 80.773438 255.375 L 75.976562 276.523438 C 72.023438 293.972656 82.988281 311.34375 100.445312 315.296875 C 117.902344 319.25 135.289062 308.292969 139.242188 290.84375 Z M 99.523438 172.621094 L 166.035156 172.621094 L 195.472656 42.730469 C 199.425781 25.285156 188.460938 7.910156 171.003906 3.957031 C 153.546875 0.0078125 136.160156 10.960938 132.207031 28.410156 Z M 99.523438 172.621094 " fill-opacity="1" fill-rule="evenodd"/></svg>